# xmcd CD database file
#
# Track frame offsets:
#	182
#	17390
#	37952
#	54682
#	81747
#	98140
#	115157
#	146965
#	164472
#	184182
#	199847
#	216940
#	239515
#	252905
#
# Disc length: 3900 seconds
#
# Revision: 2
# Processed by: cddbd v1.5.2PL0 Copyright (c) Steve Scherf et al.
# Submitted via: CDex 1.50
#
DISCID=cd0f3a0e
DTITLE=Peter Green - Legend
DYEAR=1988
DGENRE=Blues
TTITLE0=Touch My Spirit
TTITLE1=Six String Guitar
TTITLE2=Proud Pinto
TTITLE3=The Clown
TTITLE4=You Won't See Me Anymore
TTITLE5=Long Way From Home
TTITLE6=Little Dreamer
TTITLE7=In The Skies
TTITLE8=Rubbing My Eyes
TTITLE9=What Am I doing Here
TTITLE10=Corner Of My Mind
TTITLE11=Carry My Love
TTITLE12=Bandit
TTITLE13=White Skies
EXTD=YEAR: 1988
EXTT0=
EXTT1=
EXTT2=
EXTT3=
EXTT4=
EXTT5=
EXTT6=
EXTT7=
EXTT8=
EXTT9=
EXTT10=
EXTT11=
EXTT12=
EXTT13=
PLAYORDER=
